<?xml version="1.0" encoding="utf-8"?>
<!-- Generator: Adobe Illustrator 16.0.0, SVG Export Plug-In . SVG Version: 6.00 Build 0)  -->
<!DOCTYPE svg PUBLIC "-//W3C//DTD SVG 1.1//EN" "http://www.w3.org/Graphics/SVG/1.1/DTD/svg11.dtd">
<svg version="1.1" id="Layer_1" xmlns="http://www.w3.org/2000/svg" xmlns:xlink="http://www.w3.org/1999/xlink" x="0px" y="0px"
	 width="150px" height="50px" viewBox="0 0 197.6 61.2" enable-background="new 0 0 197.6 61.2" xml:space="preserve">
<path fill="#1A3866" d="M94.8,12.4v6.3h-5.7v12.8c0,2.6,0.1,4.1,0.2,4.5c0.1,0.4,0.4,0.8,0.8,1.1c0.4,0.3,0.9,0.4,1.4,0.4
	c0.8,0,1.9-0.3,3.4-0.8l0.7,6.5c-1.9,0.8-4.1,1.3-6.6,1.3c-1.5,0-2.9-0.3-4.1-0.8c-1.2-0.5-2.1-1.2-2.7-2c-0.6-0.8-1-1.9-1.2-3.3
	c-0.2-1-0.3-3-0.3-5.9V12.4H94.8L94.8,12.4z"/>
<path fill="#1A3866" d="M1.8,12h7.7v4.3c2.8-3.3,6-5,9.9-5c2,0,3.8,0.4,5.3,1.3c1.5,0.8,2.7,2.1,3.7,3.8c1.4-1.7,2.9-3,4.5-3.8
	c1.6-0.8,3.3-1.3,5.2-1.3c2.3,0,4.3,0.5,5.9,1.4c1.6,0.9,2.8,2.3,3.6,4.2c0.6,1.3,0.9,3.5,0.9,6.6v20.2H40V25.6
	c0-3.1-0.3-5.2-0.9-6.1c-0.8-1.2-2-1.8-3.6-1.8c-1.2,0-2.3,0.4-3.3,1.1c-1,0.7-1.8,1.8-2.2,3.1c-0.5,1.4-0.7,3.6-0.7,6.5v15.2h-8.4
	V26.4c0-3.1-0.2-5.1-0.4-6c-0.3-0.9-0.8-1.6-1.4-2c-0.6-0.4-1.5-0.7-2.5-0.7c-1.3,0-2.5,0.3-3.5,1c-1,0.7-1.8,1.7-2.2,3
	c-0.4,1.3-0.7,3.5-0.7,6.5v15.4H1.8V12L1.8,12z"/>
<path fill="#1A3866" d="M58.8,21.8l-7.6-1.3c0.9-3.1,2.3-5.4,4.4-6.9c2.1-1.5,5.2-2.2,9.3-2.2c3.7,0,6.5,0.4,8.4,1.3
	c1.8,0.9,3.1,2,3.9,3.4c0.7,1.4,1.1,3.9,1.1,7.5l-0.1,9.8c0,2.8,0.1,4.8,0.4,6.2c0.3,1.3,0.8,2.7,1.5,4.2h-8.3
	c-0.2-0.5-0.5-1.4-0.8-2.4c-0.1-0.5-0.2-0.8-0.3-1c-1.4,1.4-3,2.5-4.6,3.2c-1.6,0.7-3.4,1.1-5.2,1.1c-3.2,0-5.8-0.9-7.7-2.7
	c-1.9-1.8-2.8-4-2.8-6.7c0-1.8,0.4-3.4,1.3-4.8c0.9-1.4,2-2.5,3.6-3.2c1.5-0.7,3.8-1.4,6.7-2c3.9-0.7,6.6-1.4,8.1-2.1v-0.8
	c0-1.6-0.4-2.8-1.2-3.5c-0.8-0.7-2.3-1-4.5-1c-1.5,0-2.7,0.3-3.5,0.9C60,19.3,59.3,20.3,58.8,21.8L58.8,21.8z M70,28.6
	c-1.1,0.4-2.8,0.8-5.1,1.3c-2.3,0.5-3.8,1-4.6,1.5c-1.1,0.8-1.6,1.8-1.6,3c0,1.2,0.4,2.2,1.3,3c0.9,0.9,2,1.3,3.3,1.3
	c1.5,0,3-0.5,4.3-1.5c1-0.8,1.7-1.7,2-2.8c0.2-0.7,0.3-2.1,0.3-4.1V28.6L70,28.6z"/>
<path fill="#1A3866" d="M116.9,33.7l8.4,1.4c-1.1,3.1-2.8,5.4-5.1,7c-2.3,1.6-5.2,2.4-8.7,2.4c-5.5,0-9.6-1.8-12.2-5.4
	c-2.1-2.9-3.1-6.5-3.1-10.9c0-5.3,1.4-9.4,4.1-12.3c2.7-3,6.2-4.5,10.4-4.5c4.7,0,8.4,1.6,11.1,4.7c2.7,3.1,4,7.9,3.9,14.3h-20.9
	c0.1,2.5,0.7,4.4,2,5.8c1.3,1.4,2.9,2.1,4.8,2.1c1.3,0,2.4-0.4,3.3-1.1C115.8,36.5,116.4,35.3,116.9,33.7L116.9,33.7z M117.4,25.2
	c-0.1-2.4-0.7-4.3-1.9-5.5c-1.2-1.3-2.6-1.9-4.3-1.9c-1.8,0-3.3,0.7-4.5,2s-1.8,3.2-1.8,5.4H117.4L117.4,25.2z"/>
<polygon fill="#1A3866" points="128.4,43.7 136.8,43.7 136.8,0 128.4,0 128.4,43.7 "/>
<polygon fill="#1A3866" points="141.2,43.7 149.6,43.7 149.6,0 141.2,0 141.2,43.7 "/>
<path fill="#1A3866" d="M154,7.8V0h8.4v7.8H154L154,7.8z M154,43.7V12h8.4v31.7H154L154,43.7z"/>
<path fill="#1A3866" d="M164.9,27.5c0-2.8,0.7-5.5,2.1-8.1c1.4-2.6,3.3-4.6,5.8-6c2.5-1.4,5.3-2.1,8.4-2.1c4.8,0,8.7,1.6,11.8,4.7
	c3.1,3.1,4.6,7.1,4.6,11.8c0,4.8-1.5,8.8-4.6,11.9c-3.1,3.2-7,4.7-11.7,4.7c-2.9,0-5.7-0.7-8.3-2c-2.6-1.3-4.6-3.2-6-5.8
	C165.6,34.2,164.9,31.1,164.9,27.5L164.9,27.5z M173.5,27.9c0,3.1,0.7,5.6,2.2,7.2c1.5,1.7,3.3,2.5,5.5,2.5c2.2,0,4-0.8,5.5-2.5
	c1.5-1.7,2.2-4.1,2.2-7.3c0-3.1-0.7-5.5-2.2-7.2c-1.5-1.7-3.3-2.5-5.5-2.5c-2.2,0-4,0.8-5.5,2.5C174.3,22.4,173.5,24.8,173.5,27.9
	L173.5,27.9z"/>
<polygon fill-rule="evenodd" clip-rule="evenodd" fill="#D41A1F" points="71.2,1.7 90,1.7 90,11 71.2,1.7 "/>
<polygon fill="#D41A1F" points="0,60.9 2,60.9 2,54.4 2,54.4 6,60.9 8.7,60.9 8.7,51.8 6.7,51.8 6.7,58.1 6.6,58.1 2.7,51.8 0,51.8 
	0,60.9 "/>
<path fill="#D41A1F" d="M14.8,60.9H17l0.8-1.9h3.6l0.8,1.9h2.3l-4-9.2h-1.7L14.8,60.9L14.8,60.9z M20.6,57.3h-2.2l1.1-2.8L20.6,57.3
	L20.6,57.3z"/>
<polygon fill="#D41A1F" points="32.4,60.9 34,60.9 37.8,51.8 35.6,51.8 33.3,57.8 33.3,57.8 31,51.8 28.7,51.8 32.4,60.9 "/>
<polygon fill="#D41A1F" points="43.9,60.9 45.9,60.9 45.9,51.8 43.9,51.8 43.9,60.9 "/>
<path fill="#D41A1F" d="M61.2,55.5h-3.6v1.9h1.6v1.5c-0.4,0.2-1,0.5-1.9,0.5c-1.7,0-2.8-1.2-2.8-3c0-1.7,1.1-2.9,2.8-2.9
	c1,0,1.7,0.3,2.2,0.9l1.4-1.6c-0.9-0.9-2.2-1.2-3.6-1.2c-2.9,0-4.9,1.9-4.9,4.8c0,2.9,2.1,4.8,4.9,4.8c1.3,0,2.7-0.3,3.8-0.9V55.5
	L61.2,55.5z"/>
<path fill="#D41A1F" d="M67.2,60.9h2.2l0.8-1.9h3.6l0.8,1.9h2.3l-4-9.2h-1.7L67.2,60.9L67.2,60.9z M73,57.3h-2.2l1.1-2.8L73,57.3
	L73,57.3z"/>
<polygon fill="#D41A1F" points="83.4,60.9 85.5,60.9 85.5,53.6 88.1,53.6 88.1,51.8 80.8,51.8 80.8,53.6 83.4,53.6 83.4,60.9 "/>
<polygon fill="#D41A1F" points="94.2,60.9 96.2,60.9 96.2,51.8 94.2,51.8 94.2,60.9 "/>
<polygon fill="#D41A1F" points="103.2,60.9 105.3,60.9 105.3,54.4 105.3,54.4 109.3,60.9 111.9,60.9 111.9,51.8 109.9,51.8 
	109.9,58.1 109.9,58.1 106,51.8 103.2,51.8 103.2,60.9 "/>
<path fill="#D41A1F" d="M127.2,55.5h-3.6v1.9h1.6v1.5c-0.4,0.2-1,0.5-1.9,0.5c-1.7,0-2.8-1.2-2.8-3c0-1.7,1.1-2.9,2.8-2.9
	c1,0,1.7,0.3,2.2,0.9l1.4-1.6c-0.9-0.9-2.2-1.2-3.6-1.2c-2.9,0-4.9,1.9-4.9,4.8c0,2.9,2.1,4.8,4.9,4.8c1.3,0,2.7-0.3,3.8-0.9V55.5
	L127.2,55.5z"/>
<polygon fill="#D41A1F" points="138,60.9 140,60.9 140,51.8 138,51.8 138,60.9 "/>
<path fill="#D41A1F" d="M147,60.9h3.3c2.7,0,5.1-1.6,5.1-4.6c0-3.4-2.5-4.6-5.4-4.6h-3V60.9L147,60.9z M149,53.6h1.2
	c1.7,0,3.1,0.8,3.1,2.6c0,2.1-1.4,2.8-3.3,2.8h-1V53.6L149,53.6z"/>
<polygon fill="#D41A1F" points="162,60.9 168.5,60.9 168.5,59.1 164.1,59.1 164.1,57.2 168,57.2 168,55.3 164.1,55.3 164.1,53.6 
	168.3,53.6 168.3,51.8 162,51.8 162,60.9 "/>
<path fill="#D41A1F" d="M174.3,60.9h2.2l0.8-1.9h3.6l0.8,1.9h2.3l-4-9.2h-1.7L174.3,60.9L174.3,60.9z M180.2,57.3h-2.2l1.1-2.8
	L180.2,57.3L180.2,57.3z"/>
<path fill="#D41A1F" d="M195.9,52.5c-0.8-0.7-1.8-1-2.8-1c-1.8,0-3.5,1-3.5,3c0,3.1,4.3,2.1,4.3,3.8c0,0.6-0.7,1-1.4,1
	c-0.7,0-1.3-0.3-1.8-0.9l-1.4,1.6c0.9,0.8,1.9,1.1,3.1,1.1c1.9,0,3.5-1,3.5-3c0-3.2-4.2-2.1-4.2-3.8c0-0.7,0.8-0.9,1.4-0.9
	c0.5,0,1.1,0.2,1.5,0.6L195.9,52.5L195.9,52.5z"/>
</svg>
